<?xml version="1.0" encoding="UTF-8"?>
<svg xmlns="http://www.w3.org/2000/svg" version="1.1" width="300" height="300" viewBox="0 0 300 300"><rect x="0" y="0" width="300" height="300" fill="#ffffff"/><g transform="scale(9.091)"><g transform="translate(0,0)"><path fill-rule="evenodd" d="M10 0L10 2L11 2L11 0ZM12 0L12 1L13 1L13 2L12 2L12 4L13 4L13 3L14 3L14 4L15 4L15 5L17 5L17 6L16 6L16 8L17 8L17 9L18 9L18 10L19 10L19 9L20 9L20 10L21 10L21 12L20 12L20 13L19 13L19 12L16 12L16 11L17 11L17 10L16 10L16 9L12 9L12 7L13 7L13 5L11 5L11 6L10 6L10 4L11 4L11 3L8 3L8 4L9 4L9 5L8 5L8 7L9 7L9 8L6 8L6 9L8 9L8 10L9 10L9 9L10 9L10 11L11 11L11 9L12 9L12 10L13 10L13 11L12 11L12 13L13 13L13 12L14 12L14 13L15 13L15 12L16 12L16 13L19 13L19 14L15 14L15 15L14 15L14 16L15 16L15 17L12 17L12 15L13 15L13 14L10 14L10 15L9 15L9 14L8 14L8 12L9 12L9 13L11 13L11 12L9 12L9 11L8 11L8 12L6 12L6 13L7 13L7 14L6 14L6 15L5 15L5 17L7 17L7 18L6 18L6 19L7 19L7 18L8 18L8 19L10 19L10 15L11 15L11 17L12 17L12 18L13 18L13 19L12 19L12 21L13 21L13 20L14 20L14 21L15 21L15 20L16 20L16 21L17 21L17 22L15 22L15 23L14 23L14 24L15 24L15 25L12 25L12 23L13 23L13 22L11 22L11 20L10 20L10 23L7 23L7 22L6 22L6 23L5 23L5 21L9 21L9 20L4 20L4 22L2 22L2 20L3 20L3 19L2 19L2 18L4 18L4 19L5 19L5 18L4 18L4 17L3 17L3 16L4 16L4 15L3 15L3 14L0 14L0 18L1 18L1 21L0 21L0 25L1 25L1 22L2 22L2 25L8 25L8 27L9 27L9 25L12 25L12 26L13 26L13 27L12 27L12 29L13 29L13 28L14 28L14 29L17 29L17 27L16 27L16 26L15 26L15 25L17 25L17 24L16 24L16 23L17 23L17 22L20 22L20 21L17 21L17 20L16 20L16 19L17 19L17 18L15 18L15 17L19 17L19 18L18 18L18 20L19 20L19 18L20 18L20 20L22 20L22 21L21 21L21 22L24 22L24 21L25 21L25 22L27 22L27 23L28 23L28 24L24 24L24 23L23 23L23 24L22 24L22 23L21 23L21 24L20 24L20 23L18 23L18 24L20 24L20 25L19 25L19 26L21 26L21 24L22 24L22 25L24 25L24 26L22 26L22 27L20 27L20 28L19 28L19 27L18 27L18 28L19 28L19 29L18 29L18 30L20 30L20 31L21 31L21 32L22 32L22 33L23 33L23 32L24 32L24 33L25 33L25 32L24 32L24 31L27 31L27 30L29 30L29 32L31 32L31 33L32 33L32 32L31 32L31 31L30 31L30 30L33 30L33 28L32 28L32 26L33 26L33 24L32 24L32 26L31 26L31 27L30 27L30 25L29 25L29 24L31 24L31 23L32 23L32 22L33 22L33 21L32 21L32 20L31 20L31 19L32 19L32 18L33 18L33 17L32 17L32 16L31 16L31 15L32 15L32 14L33 14L33 13L31 13L31 15L30 15L30 13L29 13L29 12L28 12L28 11L29 11L29 10L28 10L28 11L27 11L27 12L28 12L28 13L29 13L29 14L28 14L28 16L27 16L27 13L25 13L25 14L26 14L26 16L27 16L27 17L25 17L25 16L24 16L24 17L23 17L23 14L24 14L24 13L23 13L23 14L22 14L22 15L21 15L21 16L20 16L20 15L19 15L19 14L20 14L20 13L21 13L21 12L22 12L22 11L23 11L23 12L25 12L25 11L26 11L26 10L27 10L27 9L28 9L28 8L27 8L27 9L26 9L26 8L25 8L25 6L24 6L24 7L23 7L23 5L24 5L24 4L25 4L25 1L24 1L24 0L23 0L23 1L24 1L24 3L23 3L23 2L22 2L22 0L18 0L18 1L16 1L16 0ZM8 1L8 2L9 2L9 1ZM18 1L18 2L16 2L16 4L17 4L17 3L20 3L20 4L21 4L21 5L18 5L18 6L17 6L17 8L18 8L18 6L19 6L19 7L20 7L20 6L21 6L21 7L22 7L22 8L20 8L20 9L22 9L22 8L23 8L23 9L24 9L24 10L23 10L23 11L24 11L24 10L25 10L25 9L24 9L24 8L23 8L23 7L22 7L22 5L23 5L23 4L22 4L22 3L21 3L21 2L20 2L20 1ZM14 2L14 3L15 3L15 2ZM9 6L9 7L10 7L10 6ZM11 6L11 7L12 7L12 6ZM14 6L14 8L15 8L15 6ZM0 8L0 11L1 11L1 12L0 12L0 13L3 13L3 11L1 11L1 10L3 10L3 9L5 9L5 8ZM10 8L10 9L11 9L11 8ZM29 8L29 9L30 9L30 8ZM31 8L31 10L33 10L33 9L32 9L32 8ZM6 10L6 11L7 11L7 10ZM4 11L4 12L5 12L5 11ZM14 11L14 12L15 12L15 11ZM30 11L30 12L31 12L31 11ZM7 14L7 15L6 15L6 16L7 16L7 15L8 15L8 18L9 18L9 15L8 15L8 14ZM1 15L1 16L2 16L2 15ZM16 15L16 16L18 16L18 15ZM29 15L29 17L27 17L27 18L28 18L28 19L29 19L29 17L30 17L30 19L31 19L31 16L30 16L30 15ZM19 16L19 17L20 17L20 18L21 18L21 17L20 17L20 16ZM1 17L1 18L2 18L2 17ZM24 17L24 18L22 18L22 20L25 20L25 21L27 21L27 22L28 22L28 23L30 23L30 22L31 22L31 20L29 20L29 21L27 21L27 19L26 19L26 18L25 18L25 17ZM14 19L14 20L15 20L15 19ZM29 21L29 22L30 22L30 21ZM6 23L6 24L7 24L7 23ZM10 23L10 24L11 24L11 23ZM8 24L8 25L9 25L9 24ZM25 25L25 28L28 28L28 25ZM26 26L26 27L27 27L27 26ZM14 27L14 28L16 28L16 27ZM23 27L23 29L22 29L22 28L20 28L20 29L22 29L22 30L21 30L21 31L22 31L22 32L23 32L23 31L24 31L24 27ZM8 28L8 33L12 33L12 31L13 31L13 30L11 30L11 32L9 32L9 30L10 30L10 29L9 29L9 28ZM29 28L29 30L30 30L30 29L32 29L32 28ZM25 29L25 30L27 30L27 29ZM15 30L15 31L14 31L14 32L15 32L15 31L16 31L16 32L17 32L17 33L20 33L20 32L19 32L19 31L18 31L18 32L17 32L17 30ZM22 30L22 31L23 31L23 30ZM27 32L27 33L28 33L28 32ZM0 0L0 7L7 7L7 0ZM1 1L1 6L6 6L6 1ZM2 2L2 5L5 5L5 2ZM26 0L26 7L33 7L33 0ZM27 1L27 6L32 6L32 1ZM28 2L28 5L31 5L31 2ZM0 26L0 33L7 33L7 26ZM1 27L1 32L6 32L6 27ZM2 28L2 31L5 31L5 28Z" fill="#000000"/></g></g></svg>
